<svg width="148" height="40" viewBox="0 0 148 40" fill="none" xmlns="http://www.w3.org/2000/svg">
<path d="M48.4863 20.9072L48.9876 18.0532C48.9876 18.0532 45.1274 16.7995 41.9856 19.1246V30.5417H45.3219V21.2658C46.6514 20.1944 48.4863 20.9072 48.4863 20.9072Z" fill="#03435F"/>
<mask id="mask0" mask-type="alpha" maskUnits="userSpaceOnUse" x="41" y="17" width="8" height="14">
<path fill-rule="evenodd" clip-rule="evenodd" d="M41.9856 19.1244C43.4972 18.006 45.1753 17.7156 46.5096 17.7159C47.9485 17.7159 48.9878 18.0533 48.9878 18.0533L48.4863 20.9073C48.4863 20.9073 46.6514 20.1945 45.3219 21.2656V30.5415H41.9856V19.1244Z" fill="white"/>
</mask>
<g mask="url(#mask0)">
<path d="M-161.106 65.9272L308.731 65.9272L308.731 -599.676H-161.106L-161.106 65.9272Z" fill="#03435F"/>
</g>
<mask id="mask1" mask-type="alpha" maskUnits="userSpaceOnUse" x="41" y="17" width="8" height="14">
<path fill-rule="evenodd" clip-rule="evenodd" d="M41.9856 19.1244C43.4972 18.006 45.1751 17.7159 46.5096 17.7159C47.9485 17.7159 48.9878 18.0533 48.9878 18.0533L48.4863 20.9073C48.4863 20.9073 46.6514 20.1945 45.3219 21.2656V30.5415H41.9856V19.1244Z" fill="white"/>
</mask>
<g mask="url(#mask1)">
<path d="M36.3923 36.135H54.5811V12.1225H36.3923V36.135Z" fill="#03435F"/>
</g>
<path d="M19.7234 14.7983L23.0582 14.17V17.8832H26.3581V20.8527H23.0582V25.281C23.0582 26.0354 23.1802 26.6343 23.4296 27.0771C23.6762 27.5268 24.1707 27.7496 24.9133 27.7496C25.2765 27.7496 25.6412 27.7148 26.0259 27.6409C26.3997 27.5658 26.7482 27.4693 27.0619 27.3429L27.5338 30.1244C27.1301 30.2976 26.684 30.4479 26.1921 30.5753C25.6987 30.7014 25.0928 30.7672 24.377 30.7672C23.4671 30.7672 22.7151 30.6346 22.1171 30.3714C21.5221 30.1083 21.0438 29.739 20.6871 29.2678C20.3305 28.8008 20.0798 28.2276 19.939 27.5564C19.7957 26.8865 19.7234 26.1467 19.7234 25.3307V14.7983Z" fill="#03435F"/>
<mask id="mask2" mask-type="alpha" maskUnits="userSpaceOnUse" x="19" y="14" width="9" height="17">
<path fill-rule="evenodd" clip-rule="evenodd" d="M19.7234 14.7982L23.0582 14.17V17.8831H26.3581V20.8526H23.0582V25.281C23.0582 26.0356 23.1802 26.6342 23.4294 27.0771C23.676 27.5269 24.1705 27.7496 24.9131 27.7496C25.2762 27.7496 25.6407 27.7147 26.0256 27.6409C26.3995 27.5657 26.7482 27.4692 27.0619 27.3431L27.5336 30.1243C27.1301 30.2977 26.6837 30.448 26.1919 30.5755C25.6984 30.7016 25.0926 30.7672 24.3768 30.7672C23.4666 30.7672 22.7148 30.6345 22.1171 30.3713C21.5219 30.1082 21.0433 29.739 20.6869 29.268C20.3303 28.8007 20.0798 28.2275 19.939 27.5563C19.7955 26.8865 19.7234 26.1469 19.7234 25.3306V14.7982Z" fill="white"/>
</mask>
<g mask="url(#mask2)">
<path d="M-161.106 65.9272L308.731 65.9272L308.731 -599.676H-161.106L-161.106 65.9272Z" fill="#03435F"/>
</g>
<mask id="mask3" mask-type="alpha" maskUnits="userSpaceOnUse" x="19" y="14" width="9" height="17">
<path fill-rule="evenodd" clip-rule="evenodd" d="M19.7234 14.7982L23.0582 14.17V17.8831H26.3581V20.8526H23.0582V25.281C23.0582 26.0356 23.1802 26.6342 23.4294 27.0771C23.676 27.5269 24.1705 27.7496 24.9131 27.7496C25.2762 27.7496 25.6407 27.7147 26.0256 27.6409C26.3995 27.5657 26.7482 27.4692 27.0619 27.3431L27.5336 30.1243C27.1301 30.2977 26.6837 30.448 26.1919 30.5755C25.6984 30.7016 25.0926 30.7672 24.3768 30.7672C23.4666 30.7672 22.7148 30.6345 22.1171 30.3713C21.5219 30.1082 21.0433 29.739 20.6869 29.268C20.3303 28.8007 20.0798 28.2275 19.939 27.5563C19.7955 26.8865 19.7234 26.1469 19.7234 25.3306V14.7982Z" fill="white"/>
</mask>
<g mask="url(#mask3)">
<path d="M14.1299 36.3606H33.1267V8.57653H14.1299L14.1299 36.3606Z" fill="#03435F"/>
</g>
<path d="M53.927 27.9848C54.537 27.9848 54.9685 27.9175 55.2247 27.7914C55.4792 27.664 55.6025 27.4143 55.6025 27.0492C55.6025 26.7605 55.4417 26.5096 55.1119 26.2961C54.7823 26.0787 54.2863 25.8371 53.6136 25.5618C53.092 25.3537 52.6176 25.1391 52.1899 24.9176C51.7678 24.6921 51.4059 24.429 51.107 24.1161C50.8092 23.8048 50.5788 23.4314 50.4125 22.9966C50.2463 22.5696 50.1675 22.0529 50.1675 21.4434C50.1675 20.2633 50.5788 19.3277 51.3978 18.6417C52.218 17.9585 53.3415 17.6095 54.7756 17.6095C55.4927 17.6095 56.1789 17.6779 56.8357 17.8162C57.4912 17.9505 58.0153 18.1036 58.3998 18.2578L57.8195 21.0364C57.4309 20.8929 57.0087 20.7668 56.5543 20.6567C56.0998 20.5441 55.5879 20.4849 55.0221 20.4849C53.978 20.4849 53.4552 20.799 53.4552 21.4205C53.4552 21.5641 53.4781 21.6917 53.5236 21.803C53.5691 21.9159 53.6578 22.0233 53.7892 22.1265C53.927 22.2287 54.1068 22.3439 54.3399 22.4622C54.5716 22.5871 54.8666 22.7158 55.2247 22.8622C55.9524 23.1522 56.5569 23.4341 57.0342 23.7188C57.5125 24.0033 57.8879 24.3028 58.1654 24.6355C58.4415 24.9605 58.6373 25.3204 58.7471 25.7201C58.8571 26.119 58.9146 26.5793 58.9146 27.1043C58.9146 28.3486 58.4776 29.2895 57.6077 29.9258C56.7338 30.5595 55.4979 30.8789 53.9015 30.8789C52.8587 30.8789 51.9902 30.7863 51.2972 30.5918C50.6016 30.4025 50.1217 30.2389 49.8538 30.1125L50.4125 27.2156C50.977 27.4546 51.5641 27.6398 52.1566 27.7796C52.757 27.9164 53.3415 27.9848 53.927 27.9848Z" fill="#03435F"/>
<mask id="mask4" mask-type="alpha" maskUnits="userSpaceOnUse" x="49" y="17" width="10" height="14">
<path fill-rule="evenodd" clip-rule="evenodd" d="M51.3978 18.6419C52.2183 17.9585 53.3415 17.6095 54.7756 17.6095C55.4929 17.6095 56.1791 17.6779 56.8359 17.8162C57.4912 17.9505 58.0153 18.1034 58.4 18.2578L57.8197 21.0364C57.4309 20.8929 57.0089 20.7668 56.5543 20.6567C56.1 20.5439 55.5879 20.4851 55.0224 20.4851C53.978 20.4851 53.4554 20.7988 53.4554 21.4205C53.4554 21.5641 53.4781 21.6917 53.5236 21.803C53.5693 21.9159 53.658 22.0233 53.7894 22.1265C53.927 22.2287 54.107 22.3439 54.3401 22.4622C54.5719 22.5868 54.8666 22.716 55.2247 22.8622C55.9526 23.1522 56.5571 23.4341 57.0342 23.7188C57.5128 24.0033 57.8881 24.3026 58.1656 24.6355C58.4417 24.9605 58.6373 25.3202 58.7473 25.7201C58.8573 26.119 58.9146 26.5793 58.9146 27.1043C58.9146 28.3486 58.4776 29.2897 57.608 29.9258C56.734 30.5595 55.4981 30.8789 53.9018 30.8789C52.8589 30.8789 51.9904 30.7863 51.2974 30.5918C50.6016 30.4025 50.1219 30.2389 49.8538 30.1125L50.4127 27.2156C50.9772 27.4548 51.5641 27.6398 52.1566 27.7796C52.757 27.9162 53.3415 27.9848 53.927 27.9848C54.537 27.9848 54.9688 27.9177 55.2247 27.7914C55.4794 27.664 55.6027 27.4143 55.6027 27.0492C55.6027 26.7605 55.4419 26.5096 55.1121 26.2961C54.7823 26.0787 54.2863 25.8371 53.6136 25.5618C53.092 25.3537 52.6178 25.1391 52.1899 24.9176C51.768 24.6921 51.4059 24.429 51.1073 24.1161C50.8095 23.8046 50.579 23.4314 50.4127 22.9966C50.2465 22.5694 50.1675 22.0529 50.1675 21.4434C50.1675 20.2635 50.579 19.3279 51.3978 18.6419Z" fill="white"/>
</mask>
<g mask="url(#mask4)">
<path d="M-161.106 65.9272L308.731 65.9272L308.731 -599.676H-161.106L-161.106 65.9272Z" fill="#03435F"/>
</g>
<mask id="mask5" mask-type="alpha" maskUnits="userSpaceOnUse" x="49" y="17" width="10" height="14">
<path fill-rule="evenodd" clip-rule="evenodd" d="M51.3978 18.6419C52.2183 17.9585 53.3415 17.6095 54.7756 17.6095C55.4929 17.6095 56.1791 17.6779 56.8359 17.8162C57.4912 17.9505 58.0153 18.1034 58.4 18.2578L57.8197 21.0364C57.4309 20.8929 57.0089 20.7668 56.5543 20.6567C56.1 20.5439 55.5879 20.4851 55.0224 20.4851C53.978 20.4851 53.4554 20.7988 53.4554 21.4205C53.4554 21.5641 53.4781 21.6917 53.5236 21.803C53.5693 21.9159 53.658 22.0233 53.7894 22.1265C53.927 22.2287 54.107 22.3439 54.3401 22.4622C54.5719 22.5868 54.8666 22.716 55.2247 22.8622C55.9526 23.1522 56.5571 23.4341 57.0342 23.7188C57.5128 24.0033 57.8881 24.3026 58.1656 24.6355C58.4417 24.9605 58.6373 25.3202 58.7473 25.7201C58.8573 26.119 58.9146 26.5793 58.9146 27.1043C58.9146 28.3486 58.4776 29.2897 57.608 29.9258C56.734 30.5595 55.4981 30.8789 53.9018 30.8789C52.8589 30.8789 51.9904 30.7863 51.2974 30.5918C50.6016 30.4025 50.1219 30.2389 49.8538 30.1125L50.4127 27.2156C50.9772 27.4548 51.5641 27.6398 52.1566 27.7796C52.757 27.9162 53.3415 27.9848 53.927 27.9848C54.537 27.9848 54.9688 27.9177 55.2247 27.7914C55.4794 27.664 55.6027 27.4143 55.6027 27.0492C55.6027 26.7605 55.4419 26.5096 55.1121 26.2961C54.7823 26.0787 54.2863 25.8371 53.6136 25.5618C53.092 25.3537 52.6178 25.1391 52.1899 24.9176C51.768 24.6921 51.4059 24.429 51.1073 24.1161C50.8095 23.8046 50.579 23.4314 50.4127 22.9966C50.2465 22.5694 50.1675 22.0529 50.1675 21.4434C50.1675 20.2635 50.579 19.3279 51.3978 18.6419Z" fill="white"/>
</mask>
<g mask="url(#mask5)">
<path d="M44.2607 36.4723H64.5084V12.0161H44.2607V36.4723Z" fill="#03435F"/>
</g>
<path d="M69.1929 23.3114C68.894 24.525 68.579 25.7332 68.2427 26.9278C67.9074 28.1266 67.5508 29.3322 67.1824 30.5456H64.5861C64.3167 29.8744 64.0232 29.0771 63.7095 28.1521C63.393 27.2232 63.0702 26.215 62.731 25.1184C62.3957 24.0255 62.0528 22.8685 61.7014 21.6442C61.349 20.4254 61.0072 19.193 60.6802 17.9458H64.1947C64.3112 18.519 64.4439 19.1488 64.5872 19.8265C64.7295 20.5057 64.8796 21.2052 65.0364 21.9248C65.1933 22.6417 65.3608 23.3623 65.5323 24.09C65.7052 24.8175 65.8823 25.5142 66.0616 26.1843C66.2561 25.4822 66.4465 24.7653 66.6328 24.0309C66.8164 23.2955 66.9975 22.5731 67.1702 21.8631C67.3406 21.1543 67.5081 20.4657 67.6608 19.8025C67.8164 19.1405 67.9545 18.519 68.0764 17.9458H70.4904C70.6137 18.519 70.7435 19.1405 70.895 19.8025C71.0424 20.4657 71.1995 21.1543 71.3657 21.8631C71.5265 22.5731 71.7021 23.2955 71.8777 24.0309C72.0585 24.7653 72.2436 25.4822 72.4353 26.1843C72.6161 25.5142 72.7959 24.8175 72.9767 24.09C73.1577 23.3623 73.3278 22.6417 73.4834 21.9248C73.6389 21.2052 73.789 20.5057 73.9339 19.8265C74.0772 19.1488 74.2073 18.519 74.3264 17.9458H77.7954C77.4658 19.193 77.1266 20.4254 76.7741 21.6442C76.4188 22.8685 76.0797 24.0255 75.7407 25.1184C75.4067 26.215 75.0771 27.2232 74.7567 28.1521C74.4338 29.0771 74.1361 29.8744 73.8709 30.5456H71.2746C70.8991 29.3322 70.5346 28.1266 70.1754 26.9278C69.8175 25.7332 69.4931 24.525 69.1929 23.3114Z" fill="#03435F"/>
<mask id="mask6" mask-type="alpha" maskUnits="userSpaceOnUse" x="60" y="17" width="18" height="14">
<path fill-rule="evenodd" clip-rule="evenodd" d="M74.3264 17.9459H77.7954C77.4658 19.1931 77.1266 20.4254 76.7739 21.644C76.4188 22.8686 76.0797 24.0257 75.7405 25.1185C75.4067 26.2151 75.0771 27.2233 74.7565 28.1522C74.4336 29.0772 74.1361 29.8742 73.8707 30.5457H71.2744C70.8991 29.3322 70.5346 28.1265 70.1754 26.9277C69.8175 25.7332 69.4931 24.5251 69.1929 23.3114C68.8938 24.5251 68.5788 25.7332 68.2427 26.9277C67.9074 28.1265 67.5508 29.3322 67.1822 30.5457H64.5859C64.3165 29.8742 64.023 29.0772 63.7093 28.1522C63.393 27.2233 63.0699 26.2151 62.731 25.1185C62.3957 24.0257 62.0526 22.8686 61.7014 21.644C61.349 20.4254 61.0072 19.1931 60.6802 17.9459H64.1945C64.3112 18.5191 64.4439 19.1486 64.5872 19.8266C64.7295 20.5058 64.8794 21.2053 65.0364 21.9246C65.1931 22.6416 65.3608 23.3624 65.5323 24.09C65.7052 24.8176 65.8823 25.5143 66.0616 26.1844C66.2559 25.4823 66.4463 24.7651 66.6326 24.031C66.8162 23.2955 66.9975 22.5731 67.1702 21.8632C67.3404 21.1541 67.5079 20.4655 67.6608 19.8026C67.8163 19.1406 67.9545 18.5191 68.0763 17.9459H70.4904C70.6135 18.5191 70.7435 19.1406 70.895 19.8026C71.0424 20.4655 71.1995 21.1541 71.3655 21.8632C71.5265 22.5731 71.7018 23.2955 71.8777 24.031C72.0585 24.7651 72.2436 25.4823 72.4351 26.1844C72.6161 25.5143 72.7956 24.8176 72.9767 24.09C73.1577 23.3624 73.3278 22.6416 73.4834 21.9246C73.6389 21.2053 73.789 20.5058 73.9337 19.8266C74.0772 19.1486 74.2073 18.5191 74.3264 17.9459Z" fill="white"/>
</mask>
<g mask="url(#mask6)">
<path d="M-161.106 65.9272L308.731 65.9272L308.731 -599.676H-161.106L-161.106 65.9272Z" fill="#03435F"/>
</g>
<mask id="mask7" mask-type="alpha" maskUnits="userSpaceOnUse" x="60" y="17" width="18" height="14">
<path fill-rule="evenodd" clip-rule="evenodd" d="M74.3264 17.9459H77.7954C77.4658 19.1931 77.1266 20.4254 76.7739 21.644C76.4188 22.8686 76.0797 24.0257 75.7405 25.1185C75.4067 26.2151 75.0771 27.2233 74.7565 28.1522C74.4336 29.0772 74.1361 29.8742 73.8707 30.5457H71.2744C70.8991 29.3322 70.5346 28.1265 70.1754 26.9277C69.8175 25.7332 69.4931 24.5251 69.1929 23.3114C68.8938 24.5251 68.5788 25.7332 68.2427 26.9277C67.9074 28.1265 67.5508 29.3322 67.1822 30.5457H64.5859C64.3165 29.8742 64.023 29.0772 63.7093 28.1522C63.393 27.2233 63.0699 26.2151 62.731 25.1185C62.3957 24.0257 62.0526 22.8686 61.7014 21.644C61.349 20.4254 61.0072 19.1931 60.6802 17.9459H64.1945C64.3112 18.5191 64.4439 19.1486 64.5872 19.8266C64.7295 20.5058 64.8794 21.2053 65.0364 21.9246C65.1931 22.6416 65.3608 23.3624 65.5323 24.09C65.7052 24.8176 65.8823 25.5143 66.0616 26.1844C66.2559 25.4823 66.4463 24.7651 66.6326 24.031C66.8162 23.2955 66.9975 22.5731 67.1702 21.8632C67.3404 21.1541 67.5079 20.4655 67.6608 19.8026C67.8163 19.1406 67.9545 18.5191 68.0763 17.9459H70.4904C70.6135 18.5191 70.7435 19.1406 70.895 19.8026C71.0424 20.4655 71.1995 21.1541 71.3655 21.8632C71.5265 22.5731 71.7018 23.2955 71.8777 24.031C72.0585 24.7651 72.2436 25.4823 72.4351 26.1844C72.6161 25.5143 72.7956 24.8176 72.9767 24.09C73.1577 23.3624 73.3278 22.6416 73.4834 21.9246C73.6389 21.2053 73.789 20.5058 73.9337 19.8266C74.0772 19.1486 74.2073 18.5191 74.3264 17.9459Z" fill="white"/>
</mask>
<g mask="url(#mask7)">
<path d="M55.0869 36.1391H83.3888V12.3526H55.0869V36.1391Z" fill="#03435F"/>
</g>
<path d="M80.1526 30.5407H83.4822V17.9436H80.1526V30.5407Z" fill="#03435F"/>
<mask id="mask8" mask-type="alpha" maskUnits="userSpaceOnUse" x="80" y="17" width="4" height="14">
<path fill-rule="evenodd" clip-rule="evenodd" d="M80.1526 30.541V17.9439H83.4824V30.541H80.1526Z" fill="white"/>
</mask>
<g mask="url(#mask8)">
<path d="M-161.106 65.9272L308.731 65.9272L308.731 -599.676H-161.106L-161.106 65.9272Z" fill="#03435F"/>
</g>
<mask id="mask9" mask-type="alpha" maskUnits="userSpaceOnUse" x="80" y="17" width="4" height="14">
<path fill-rule="evenodd" clip-rule="evenodd" d="M80.1526 30.541V17.9439H83.4824V30.541H80.1526Z" fill="white"/>
</mask>
<g mask="url(#mask9)">
<path d="M74.5591 36.1341H89.0752V12.3503H74.5591V36.1341Z" fill="#03435F"/>
</g>
<path d="M86.1309 14.8021L89.463 14.1699V17.95H92.7605V20.914H89.463V25.3467C89.463 26.097 89.5863 26.7013 89.8316 27.1428C90.0769 27.5899 90.574 27.814 91.3182 27.814C91.6787 27.814 92.0486 27.7818 92.4266 27.7079C92.8085 27.6354 93.1544 27.5321 93.4694 27.4073L93.9373 30.1861C93.5337 30.363 93.0847 30.5136 92.5956 30.6423C92.1007 30.7684 91.5018 30.8329 90.7831 30.8329C89.8719 30.8329 89.1199 30.7016 88.5234 30.4356C87.9257 30.1765 87.4484 29.8101 87.092 29.3348C86.7354 28.8677 86.4862 28.2918 86.3428 27.6247C86.198 26.9522 86.1309 26.2085 86.1309 25.3962V14.8021Z" fill="#03435F"/>
<mask id="mask10" mask-type="alpha" maskUnits="userSpaceOnUse" x="86" y="14" width="8" height="17">
<path fill-rule="evenodd" clip-rule="evenodd" d="M86.1309 14.8022L89.4628 14.17V17.9501H92.7603V20.9141H89.4628V25.3468C89.4628 26.097 89.5863 26.7011 89.8316 27.1429C90.0769 27.5899 90.5741 27.8139 91.318 27.8139C91.6785 27.8139 92.0486 27.7818 92.4266 27.708C92.8085 27.6352 93.1544 27.5322 93.4692 27.4074L93.9371 30.186C93.5337 30.3631 93.0845 30.5136 92.5957 30.6424C92.1007 30.7685 91.5019 30.833 90.7832 30.833C89.8719 30.833 89.1197 30.7016 88.5235 30.4356C87.9255 30.1764 87.4484 29.8102 87.092 29.3351C86.7354 28.8678 86.4862 28.292 86.3426 27.6248C86.198 26.9523 86.1309 26.2083 86.1309 25.3964V14.8022Z" fill="white"/>
</mask>
<g mask="url(#mask10)">
<path d="M-161.106 65.9272L308.731 65.9272L308.731 -599.676H-161.106L-161.106 65.9272Z" fill="#03435F"/>
</g>
<mask id="mask11" mask-type="alpha" maskUnits="userSpaceOnUse" x="86" y="14" width="8" height="17">
<path fill-rule="evenodd" clip-rule="evenodd" d="M86.1309 14.8022L89.4628 14.17V17.9501H92.7603V20.9141H89.4628V25.3468C89.4628 26.097 89.5863 26.7011 89.8316 27.1429C90.0769 27.5899 90.5741 27.8139 91.318 27.8139C91.6785 27.8139 92.0486 27.7818 92.4266 27.708C92.8085 27.6352 93.1544 27.5322 93.4692 27.4074L93.9371 30.186C93.5337 30.3631 93.0845 30.5136 92.5957 30.6424C92.1007 30.7685 91.5019 30.833 90.7832 30.833C89.8719 30.833 89.1197 30.7016 88.5235 30.4356C87.9255 30.1764 87.4484 29.8102 87.092 29.3351C86.7354 28.8678 86.4862 28.292 86.3426 27.6248C86.198 26.9523 86.1309 26.2083 86.1309 25.3964V14.8022Z" fill="white"/>
</mask>
<g mask="url(#mask11)">
<path d="M80.5374 36.4264H99.5305V8.57651H80.5374V36.4264Z" fill="#03435F"/>
</g>
<path d="M95.1147 24.2487C95.1147 23.3371 95.2531 22.4781 95.5291 21.6727C95.8051 20.8645 96.2033 20.1639 96.7248 19.5637C97.2475 18.9638 97.8801 18.4911 98.6279 18.1382C99.3719 17.7905 100.222 17.6106 101.176 17.6106C101.802 17.6106 102.377 17.6737 102.9 17.7918C103.423 17.914 103.932 18.0846 104.421 18.3059L103.73 21.156C103.415 21.0296 103.073 20.9196 102.698 20.8203C102.325 20.7262 101.905 20.6767 101.444 20.6767C100.46 20.6767 99.7243 21.0055 99.2431 21.6605C98.7539 22.3171 98.5153 23.1776 98.5153 24.2487C98.5153 25.3802 98.7419 26.2595 99.2004 26.8825C99.6507 27.504 100.447 27.8168 101.58 27.8168C101.983 27.8168 102.413 27.775 102.878 27.6959C103.339 27.6153 103.764 27.4892 104.156 27.3121L104.622 30.2358C104.233 30.4116 103.751 30.5593 103.169 30.6893C102.585 30.8159 101.945 30.8815 101.246 30.8815C100.172 30.8815 99.2447 30.707 98.4711 30.3645C97.6966 30.0223 97.0571 29.555 96.5584 28.9644C96.0558 28.3726 95.694 27.6746 95.4622 26.869C95.2302 26.0623 95.1147 25.1872 95.1147 24.2487Z" fill="#03435F"/>
<mask id="mask12" mask-type="alpha" maskUnits="userSpaceOnUse" x="95" y="17" width="10" height="14">
<path fill-rule="evenodd" clip-rule="evenodd" d="M98.6279 18.1382C99.3719 17.7906 100.222 17.6106 101.176 17.6106C101.802 17.6106 102.377 17.6736 102.9 17.7916C103.422 17.9141 103.932 18.0844 104.421 18.306L103.73 21.1558C103.414 21.0297 103.073 20.9197 102.697 20.8204C102.325 20.726 101.905 20.6766 101.444 20.6766C100.46 20.6766 99.7243 21.0055 99.2431 21.6606C98.7539 22.317 98.5153 23.1774 98.5153 24.2488C98.5153 25.3803 98.7421 26.2595 99.2004 26.8826C99.6507 27.5041 100.447 27.8169 101.579 27.8169C101.983 27.8169 102.413 27.7751 102.878 27.696C103.339 27.6154 103.764 27.4893 104.156 27.3119L104.622 30.2358C104.234 30.4116 103.751 30.5591 103.169 30.6894C102.585 30.8158 101.946 30.8815 101.246 30.8815C100.172 30.8815 99.2446 30.7068 98.4711 30.3644C97.6966 30.0221 97.0571 29.5551 96.5582 28.9647C96.0561 28.3726 95.694 27.6746 95.4622 26.869C95.2302 26.0624 95.1147 25.1871 95.1147 24.2488C95.1147 23.3371 95.2531 22.4781 95.5291 21.6728C95.8051 20.8646 96.2033 20.1638 96.7246 19.5636C97.2475 18.9636 97.8801 18.4911 98.6279 18.1382Z" fill="white"/>
</mask>
<g mask="url(#mask12)">
<path d="M-161.106 65.9272L308.731 65.9272L308.731 -599.676H-161.106L-161.106 65.9272Z" fill="#03435F"/>
</g>
<mask id="mask13" mask-type="alpha" maskUnits="userSpaceOnUse" x="95" y="17" width="10" height="14">
<path fill-rule="evenodd" clip-rule="evenodd" d="M98.6279 18.1382C99.3719 17.7906 100.222 17.6106 101.176 17.6106C101.802 17.6106 102.377 17.6736 102.9 17.7916C103.422 17.9141 103.932 18.0844 104.421 18.306L103.73 21.1558C103.414 21.0297 103.073 20.9197 102.697 20.8204C102.325 20.726 101.905 20.6766 101.444 20.6766C100.46 20.6766 99.7243 21.0055 99.2431 21.6606C98.7539 22.317 98.5153 23.1774 98.5153 24.2488C98.5153 25.3803 98.7421 26.2595 99.2004 26.8826C99.6507 27.5041 100.447 27.8169 101.579 27.8169C101.983 27.8169 102.413 27.7751 102.878 27.696C103.339 27.6154 103.764 27.4893 104.156 27.3119L104.622 30.2358C104.234 30.4116 103.751 30.5591 103.169 30.6894C102.585 30.8158 101.946 30.8815 101.246 30.8815C100.172 30.8815 99.2446 30.7068 98.4711 30.3644C97.6966 30.0221 97.0571 29.5551 96.5582 28.9647C96.0561 28.3726 95.694 27.6746 95.4622 26.869C95.2302 26.0624 95.1147 25.1871 95.1147 24.2488C95.1147 23.3371 95.2531 22.4781 95.5291 21.6728C95.8051 20.8646 96.2033 20.1638 96.7246 19.5636C97.2475 18.9636 97.8801 18.4911 98.6279 18.1382Z" fill="white"/>
</mask>
<g mask="url(#mask13)">
<path d="M89.5215 36.4749H110.215V12.0172H89.5215V36.4749Z" fill="#03435F"/>
</g>
<path d="M106.777 30.5411V14.7974L110.11 14.1707V17.9965C110.332 17.9172 110.618 17.8407 110.972 17.7684C111.32 17.6972 111.662 17.6595 111.989 17.6595C112.942 17.6595 113.734 17.8004 114.37 18.0784C115.002 18.3577 115.513 18.7537 115.891 19.265C116.274 19.7739 116.54 20.3832 116.699 21.0827C116.853 21.7872 116.931 22.5715 116.931 23.4333V30.5411H113.599V23.8613C113.599 22.7122 113.461 21.8988 113.186 21.4169C112.91 20.9429 112.398 20.7028 111.654 20.7028C111.351 20.7028 111.075 20.7311 110.812 20.7847C110.552 20.8411 110.318 20.9028 110.11 20.9659V30.5411H106.777Z" fill="#03435F"/>
<mask id="mask14" mask-type="alpha" maskUnits="userSpaceOnUse" x="106" y="14" width="11" height="17">
<path fill-rule="evenodd" clip-rule="evenodd" d="M106.777 14.7974L110.11 14.1706V17.9967C110.332 17.9171 110.618 17.8407 110.972 17.7683C111.32 17.6971 111.662 17.6597 111.989 17.6597C112.942 17.6597 113.735 17.8006 114.37 18.0784C115.002 18.3578 115.513 18.7537 115.891 19.2652C116.274 19.7738 116.54 20.3832 116.699 21.0829C116.853 21.7874 116.931 22.5714 116.931 23.4334V30.5411H113.599V23.8613C113.599 22.7124 113.461 21.8987 113.186 21.4168C112.91 20.943 112.398 20.7027 111.654 20.7027C111.351 20.7027 111.075 20.731 110.812 20.7849C110.552 20.8411 110.318 20.9027 110.11 20.9659V30.5411H106.777V14.7974Z" fill="white"/>
</mask>
<g mask="url(#mask14)">
<path d="M-161.106 65.9272L308.731 65.9272L308.731 -599.676H-161.106L-161.106 65.9272Z" fill="#03435F"/>
</g>
<mask id="mask15" mask-type="alpha" maskUnits="userSpaceOnUse" x="106" y="14" width="11" height="17">
<path fill-rule="evenodd" clip-rule="evenodd" d="M106.777 14.7974L110.11 14.1706V17.9967C110.332 17.9171 110.618 17.8407 110.972 17.7683C111.32 17.6971 111.662 17.6597 111.989 17.6597C112.942 17.6597 113.735 17.8006 114.37 18.0784C115.002 18.3578 115.513 18.7537 115.891 19.2652C116.274 19.7738 116.54 20.3832 116.699 21.0829C116.853 21.7874 116.931 22.5714 116.931 23.4334V30.5411H113.599V23.8613C113.599 22.7124 113.461 21.8987 113.186 21.4168C112.91 20.943 112.398 20.7027 111.654 20.7027C111.351 20.7027 111.075 20.731 110.812 20.7849C110.552 20.8411 110.318 20.9027 110.11 20.9659V30.5411H106.777V14.7974Z" fill="white"/>
</mask>
<g mask="url(#mask15)">
<path d="M101.183 36.1346H122.524V8.57718H101.183V36.1346Z" fill="#03435F"/>
</g>
<path d="M6.27563 30.5452L6.27563 19.1294C6.27563 19.1294 7.95108 17.6971 11.6157 17.6971C14.9505 17.6971 16.7817 19.4812 16.7817 23.4077V30.5452H13.4508V23.4077C13.4508 20.9068 12.2818 20.7336 11.2832 20.7336C10.2847 20.7336 9.61586 21.2652 9.61586 21.2652V30.5452H6.27563Z" fill="#03435F"/>
<mask id="mask16" mask-type="alpha" maskUnits="userSpaceOnUse" x="6" y="17" width="11" height="14">
<path fill-rule="evenodd" clip-rule="evenodd" d="M6.27563 19.1294C6.27563 19.1294 7.95108 17.6971 11.6157 17.6971C14.9504 17.6971 16.7814 19.481 16.7814 23.4079V30.5452H13.4508V23.4079C13.4508 20.9066 12.2818 20.7336 11.2832 20.7336C10.2847 20.7336 9.61586 21.2654 9.61586 21.2654V30.5452H6.27563L6.27563 19.1294Z" fill="white"/>
</mask>
<g mask="url(#mask16)">
<path d="M-161.106 65.9272L308.731 65.9272L308.731 -599.676H-161.106L-161.106 65.9272Z" fill="#03435F"/>
</g>
<mask id="mask17" mask-type="alpha" maskUnits="userSpaceOnUse" x="6" y="17" width="11" height="14">
<path fill-rule="evenodd" clip-rule="evenodd" d="M6.27563 19.1294C6.27563 19.1294 7.95108 17.6971 11.6157 17.6971C14.9504 17.6971 16.7814 19.481 16.7814 23.4079V30.5452H13.4508V23.4079C13.4508 20.9066 12.2818 20.7336 11.2832 20.7336C10.2847 20.7336 9.61586 21.2654 9.61586 21.2654V30.5452H6.27563L6.27563 19.1294Z" fill="white"/>
</mask>
<g mask="url(#mask17)">
<path d="M0.682617 36.1387H22.3748V12.104H0.682617L0.682617 36.1387Z" fill="#03435F"/>
</g>
<path d="M0 30.5453L0 14.7989L3.3348 14.1705L3.3348 30.5453H0Z" fill="#03435F"/>
<mask id="mask18" mask-type="alpha" maskUnits="userSpaceOnUse" x="0" y="14" width="4" height="17">
<path fill-rule="evenodd" clip-rule="evenodd" d="M0 14.7991L3.3348 14.1705L3.3348 30.5453H0L0 14.7991Z" fill="white"/>
</mask>
<g mask="url(#mask18)">
<path d="M-161.106 65.9272L308.731 65.9272L308.731 -599.676H-161.106L-161.106 65.9272Z" fill="#03435F"/>
</g>
<mask id="mask19" mask-type="alpha" maskUnits="userSpaceOnUse" x="0" y="14" width="4" height="17">
<path fill-rule="evenodd" clip-rule="evenodd" d="M0 14.7991L3.3348 14.1705L3.3348 30.5453H0L0 14.7991Z" fill="white"/>
</mask>
<g mask="url(#mask19)">
<path d="M-5.59326 36.1387H8.9283L8.9283 8.57737H-5.59326L-5.59326 36.1387Z" fill="#03435F"/>
</g>
<path fill-rule="evenodd" clip-rule="evenodd" d="M31.8772 25.1507H39.3781C39.7131 23.0054 39.3781 17.6601 34.3759 17.6601C31.0422 17.6601 28.71 20.1542 28.71 24.0822C28.71 29.077 31.7097 30.8585 35.046 30.8585C37.3783 30.8585 39.0443 30.1509 39.0443 30.1509L38.7106 27.293C38.7106 27.293 37.0432 27.8261 35.3756 27.8261C32.0447 27.8261 31.8772 25.1507 31.8772 25.1507ZM31.8772 22.6509C31.8772 22.6509 32.0447 20.1542 34.2123 20.1542C36.3783 20.1542 36.5417 22.6509 36.5417 22.6509H31.8772Z" fill="#03435F"/>
<mask id="mask20" mask-type="alpha" maskUnits="userSpaceOnUse" x="28" y="17" width="12" height="14">
<path fill-rule="evenodd" clip-rule="evenodd" d="M28.71 24.0821C28.71 20.1542 31.0422 17.66 34.3757 17.66C39.3779 17.66 39.7129 23.0055 39.3779 25.1506H31.8772C31.8772 25.1506 32.0447 27.826 35.3754 27.826C37.043 27.826 38.7104 27.293 38.7104 27.293L39.0441 30.1509C39.0441 30.1509 37.378 30.8586 35.0458 30.8586C31.7097 30.8586 28.71 29.0771 28.71 24.0821ZM34.2121 20.1542C32.0447 20.1542 31.8772 22.6511 31.8772 22.6511H36.5417C36.5417 22.6511 36.3781 20.1542 34.2121 20.1542Z" fill="white"/>
</mask>
<g mask="url(#mask20)">
<path d="M-161.106 65.9271L308.731 65.9271L308.731 -599.676H-161.106L-161.106 65.9271Z" fill="#03435F"/>
</g>
<mask id="mask21" mask-type="alpha" maskUnits="userSpaceOnUse" x="28" y="17" width="12" height="14">
<path fill-rule="evenodd" clip-rule="evenodd" d="M28.71 24.0821C28.71 20.1542 31.0422 17.66 34.3757 17.66C39.3779 17.66 39.7129 23.0055 39.3779 25.1506H31.8772C31.8772 25.1506 32.0447 27.826 35.3754 27.826C37.043 27.826 38.7104 27.293 38.7104 27.293L39.0441 30.1509C39.0441 30.1509 37.378 30.8586 35.0458 30.8586C31.7097 30.8586 28.71 29.0771 28.71 24.0821ZM34.2121 20.1542C32.0447 20.1542 31.8772 22.6511 31.8772 22.6511H36.5417C36.5417 22.6511 36.3781 20.1542 34.2121 20.1542Z" fill="white"/>
</mask>
<g mask="url(#mask21)">
<path d="M23.1167 36.4518H45.0646V12.0666H23.1167V36.4518Z" fill="#03435F"/>
</g>
<mask id="mask22" mask-type="alpha" maskUnits="userSpaceOnUse" x="121" y="11" width="23" height="29">
<path fill-rule="evenodd" clip-rule="evenodd" d="M121.348 14.1737C121.348 13.4125 130.936 11.77 137.365 11.77C140.154 11.77 142.348 12.0789 142.91 12.9023C145.805 16.7255 125.423 40.7114 123.725 39.9838C122.363 39.62 134.591 24.3529 132.553 18.1714C131.535 14.9026 121.348 15.2662 121.348 14.1737Z" fill="white"/>
</mask>
<g mask="url(#mask22)">
<path d="M115.755 45.5934H148.784V6.1767H115.755V45.5934Z" fill="#ED342B"/>
</g>
<mask id="mask23" mask-type="alpha" maskUnits="userSpaceOnUse" x="138" y="0" width="10" height="10">
<path fill-rule="evenodd" clip-rule="evenodd" d="M138.665 4.72377C138.665 2.1129 140.642 2.19345e-05 143.079 2.19345e-05C145.518 2.19345e-05 147.493 2.1129 147.493 4.72377C147.493 7.33597 145.518 9.44885 143.079 9.44885C140.642 9.44885 138.665 7.33597 138.665 4.72377Z" fill="white"/>
</mask>
<g mask="url(#mask23)">
<path d="M133.072 15.0424L153.086 15.0424V-5.59347H133.072V15.0424Z" fill="#ED342B"/>
</g>
</svg>
